<svg width="39" height="45" viewBox="0 0 39 45" fill="none" xmlns="http://www.w3.org/2000/svg">
<path d="M31.8212 23.7694C31.8009 20.084 33.4795 17.3024 36.8769 15.2538C34.976 12.5525 32.1043 11.0663 28.3124 10.7751C24.7228 10.4939 20.7995 12.8538 19.3637 12.8538C17.8469 12.8538 14.3686 10.8755 11.6384 10.8755C5.99617 10.9659 0 15.3442 0 24.2514C0 26.8824 0.485356 29.6038 1.45607 32.4056C2.75035 36.091 7.4219 45.1288 12.2957 44.9781C14.8438 44.9179 16.6437 43.1806 19.9603 43.1806C23.1757 43.1806 24.8442 44.9781 27.6855 44.9781C32.5997 44.9078 36.8264 36.6935 38.06 32.998C31.4672 29.9151 31.8212 23.9602 31.8212 23.7694ZM26.098 7.28045C28.8585 4.02684 28.6057 1.06445 28.5248 0C26.0879 0.140588 23.2668 1.64689 21.659 3.50466C19.8895 5.49298 18.848 7.95327 19.0704 10.7249C21.7096 10.9257 24.1161 9.58007 26.098 7.28045Z" fill="black"/>
</svg>
