<svg width="45" height="42" viewBox="0 0 45 42" fill="none" xmlns="http://www.w3.org/2000/svg">
<path fill-rule="evenodd" clip-rule="evenodd" d="M42.4977 41.52C43.8685 41.52 44.98 40.4939 44.98 39.2285V2.2915C44.98 1.02565 43.8684 0 42.4977 0H2.48248C1.11113 0 0 1.02581 0 2.2915V39.2283C0 40.4939 1.11113 41.5198 2.48248 41.5198H42.4977V41.52ZM31.0355 41.52V25.4412H36.8822L37.7576 19.175H31.0353V15.1743C31.0353 13.3601 31.581 12.1238 34.3996 12.1238L37.9942 12.1222V6.51778C37.3725 6.44155 35.2385 6.2709 32.7562 6.2709C27.5733 6.2709 24.0251 9.19104 24.0251 14.5539V19.175H18.1634V25.4412H24.0251V41.5198H31.0355V41.52Z" fill="#0F2E68"/>
</svg>
