<svg width="47" height="47" viewBox="0 0 47 47" fill="none" xmlns="http://www.w3.org/2000/svg">
<g clip-path="url(#clip0_27_1358)">
<path d="M45.6187 23.7918C45.6187 21.8781 45.4634 20.4816 45.1273 19.0334H23.2749V27.6709H36.1018C35.8433 29.8174 34.4468 33.05 31.3434 35.2222L31.2999 35.5114L38.2093 40.864L38.688 40.9117C43.0842 36.8515 45.6187 30.8776 45.6187 23.7918Z" fill="#4285F4"/>
<path d="M23.2749 46.5494C29.559 46.5494 34.8345 44.4805 38.6879 40.9118L31.3434 35.2223C29.378 36.5929 26.7401 37.5498 23.2749 37.5498C17.12 37.5498 11.8962 33.4897 10.034 27.8779L9.76105 27.9011L2.57662 33.4612L2.48267 33.7224C6.31003 41.3254 14.1718 46.5494 23.2749 46.5494Z" fill="#34A853"/>
<path d="M10.0339 27.878C9.54257 26.4298 9.25821 24.878 9.25821 23.2747C9.25821 21.6712 9.54257 20.1197 10.0081 18.6715L9.99505 18.363L2.72059 12.7136L2.48258 12.8268C0.90514 15.9819 0 19.5249 0 23.2747C0 27.0245 0.90514 30.5674 2.48258 33.7224L10.0339 27.878Z" fill="#FBBC05"/>
<path d="M23.2749 8.99952C27.6453 8.99952 30.5933 10.8874 32.2744 12.465L38.843 6.05144C34.8088 2.30163 29.559 0 23.2749 0C14.1718 0 6.31003 5.22386 2.48267 12.8269L10.0081 18.6715C11.8962 13.0597 17.12 8.99952 23.2749 8.99952Z" fill="#EB4335"/>
</g>
<defs>
<clipPath id="clip0_27_1358">
<rect width="46.71" height="46.71" fill="white"/>
</clipPath>
</defs>
</svg>
