<svg width="225" height="218" viewBox="0 0 225 218" fill="none" xmlns="http://www.w3.org/2000/svg">
<mask id="path-1-inside-1_780_358" fill="white">
<path d="M0 112.5C0 50.368 50.368 0 112.5 0V0C174.632 0 225 50.368 225 112.5V218H0V112.5Z"/>
</mask>
<path d="M0 112.5C0 50.368 50.368 0 112.5 0V0C174.632 0 225 50.368 225 112.5V218H0V112.5Z" fill="url(#paint0_linear_780_358)"/>
<path d="M-1 112.5C-1 49.8157 49.8157 -1 112.5 -1C175.184 -1 226 49.8157 226 112.5H224C224 50.9203 174.08 1 112.5 1C50.9203 1 1 50.9203 1 112.5H-1ZM225 218H0H225ZM-1 218V112.5C-1 49.8157 49.8157 -1 112.5 -1V1C50.9203 1 1 50.9203 1 112.5V218H-1ZM112.5 -1C175.184 -1 226 49.8157 226 112.5V218H224V112.5C224 50.9203 174.08 1 112.5 1V-1Z" fill="url(#paint1_linear_780_358)" mask="url(#path-1-inside-1_780_358)"/>
<path d="M144.9 149.8H140.432C140.479 149.438 140.5 149.069 140.5 148.7C140.5 145.595 138.713 142.952 136.1 141.728V104.7C136.1 104.04 135.66 103.6 135 103.6H118.5V87.1C118.5 86.44 118.06 86 117.4 86H87.7002C87.04 85.9999 86.6 86.4398 86.6 87.0998V149.8H81.1C80.44 149.8 80 150.24 80 150.9C80 151.56 80.44 152 81.1 152H87.7H91H117.4H139.07H144.9C145.56 152 146 151.56 146 150.9C146 150.24 145.56 149.8 144.9 149.8ZM133.9 141.078C133.541 141.027 133.174 141 132.8 141C131.97 141 131.155 141.141 130.385 141.406C130.194 141.15 129.885 141 129.5 141C128.84 141 128.4 141.44 128.4 142.1V142.437C127.983 142.737 127.596 143.08 127.244 143.461C127.188 143.52 127.134 143.579 127.08 143.64C126.169 142.5 124.994 141.676 123.667 141.275C123.476 141.1 123.213 141 122.9 141C122.777 141 122.662 141.015 122.556 141.044C122.308 141.015 122.056 141 121.8 141C121.111 141 120.334 141.089 119.705 141.344C119.628 141.371 119.55 141.398 119.474 141.427C118.714 140.809 117.824 140.364 116.888 140.119C116.878 140.117 116.867 140.115 116.858 140.112C116.776 140.091 116.694 140.071 116.612 140.053C116.545 140.038 116.477 140.026 116.41 140.013C116.381 140.007 116.351 140.002 116.322 139.997C116.251 139.984 116.18 139.974 116.109 139.964C116.077 139.959 116.045 139.955 116.013 139.951C115.947 139.943 115.881 139.935 115.815 139.929C115.766 139.925 115.718 139.921 115.67 139.918C115.618 139.914 115.566 139.91 115.514 139.908C115.409 139.903 115.305 139.9 115.2 139.9C115.119 139.9 115.039 139.901 114.959 139.904C114.907 139.906 114.854 139.909 114.802 139.912C114.781 139.913 114.76 139.914 114.739 139.916C113.737 139.982 112.752 140.265 111.9 140.766V105.8H117.4H133.9V141.078ZM88.8 88.1999H116.3V103.6H110.8C110.14 103.6 109.7 104.04 109.7 104.7V138.91C109.138 138.348 108.49 137.872 107.784 137.5C107.722 137.467 107.659 137.435 107.596 137.403C107.571 137.391 107.546 137.378 107.521 137.366C106.736 136.985 105.882 136.736 104.99 136.642C104.977 136.641 104.964 136.64 104.952 136.639C104.848 136.628 104.744 136.62 104.639 136.614C104.612 136.612 104.584 136.611 104.556 136.609C104.438 136.604 104.319 136.6 104.2 136.6C102.563 136.6 101.046 137.138 99.8 138.043V137.7C99.8 137.04 99.36 136.6 98.7 136.6C98.04 136.6 97.6001 137.04 97.6001 137.7V139.9C97.6001 140.065 97.6275 140.216 97.6791 140.35C97.139 141.24 96.7668 142.244 96.6101 143.31C95.3437 143.455 94.1857 143.911 93.2001 144.592V144.3C93.2001 143.64 92.7602 143.2 92.1002 143.2C91.4402 143.2 91.0002 143.64 91.0002 144.3V146.5C91.0002 146.629 91.0174 146.748 91.0491 146.858C90.5037 147.741 90.1325 148.739 89.9797 149.8H88.8003V88.1999H88.8ZM97.0994 145.423C97.1212 145.421 97.1432 145.419 97.1652 145.418C97.2232 145.413 97.2812 145.409 97.3397 145.406C97.4259 145.402 97.5127 145.4 97.6001 145.4C98.2601 145.4 98.7 144.96 98.7 144.3C98.7 141.22 101.12 138.8 104.2 138.8C106.95 138.8 109.26 140.78 109.59 143.53C109.664 143.827 109.841 144.072 110.083 144.235C110.098 144.246 110.113 144.256 110.129 144.266C110.146 144.276 110.163 144.287 110.181 144.297C110.221 144.319 110.264 144.339 110.308 144.357C110.309 144.358 110.311 144.358 110.313 144.359C110.363 144.379 110.416 144.396 110.47 144.41C110.47 144.41 110.47 144.41 110.47 144.41C110.536 144.432 110.61 144.44 110.689 144.438C111.05 144.443 111.387 144.245 111.57 143.97C111.57 143.97 111.57 143.97 111.57 143.97L111.68 143.86C112.56 142.76 113.77 142.1 115.2 142.1C115.943 142.1 116.685 142.308 117.352 142.697C116.04 143.931 115.296 145.539 115.209 147.26C115.203 147.373 115.2 147.486 115.2 147.6C115.2 148.365 115.328 149.098 115.579 149.8H92.21C92.7249 147.432 94.6855 145.642 97.0994 145.423ZM118.176 149.8C117.756 149.089 117.51 148.249 117.51 147.49C117.51 146.273 117.99 145.178 118.814 144.377C118.971 144.231 119.139 144.096 119.317 143.974C119.488 143.975 119.661 143.939 119.82 143.86C122.24 142.54 125.1 143.75 125.98 146.17C126.09 146.5 126.42 146.83 126.97 146.83C127.074 146.83 127.19 146.797 127.306 146.738C127.582 146.692 127.8 146.49 127.96 146.17C128.386 145.264 129.046 144.541 129.85 144.034C130.023 143.986 130.172 143.9 130.29 143.784C131.046 143.404 131.902 143.2 132.8 143.2C135.88 143.2 138.3 145.62 138.3 148.7C138.3 149.03 138.3 149.47 138.19 149.8H118.176Z" fill="#23408F"/>
<path d="M116.3 114.6C115.64 114.6 115.2 115.04 115.2 115.7V117.9C115.2 118.56 115.64 119 116.3 119C116.96 119 117.4 118.56 117.4 117.9V115.7C117.4 115.04 116.96 114.6 116.3 114.6Z" fill="#23408F"/>
<path d="M116.3 134.4C115.64 134.4 115.2 134.84 115.2 135.5V137.7C115.2 138.36 115.64 138.8 116.3 138.8C116.96 138.8 117.4 138.36 117.4 137.7V135.5C117.4 134.84 116.96 134.4 116.3 134.4Z" fill="#23408F"/>
<path d="M116.3 121.2C115.64 121.2 115.2 121.64 115.2 122.3V124.5C115.2 125.16 115.64 125.6 116.3 125.6C116.96 125.6 117.4 125.16 117.4 124.5V122.3C117.4 121.64 116.96 121.2 116.3 121.2Z" fill="#23408F"/>
<path d="M116.3 127.8C115.64 127.8 115.2 128.24 115.2 128.9V131.1C115.2 131.76 115.64 132.2 116.3 132.2C116.96 132.2 117.4 131.76 117.4 131.1V128.9C117.4 128.24 116.96 127.8 116.3 127.8Z" fill="#23408F"/>
<path d="M116.3 108C115.64 108 115.2 108.44 115.2 109.1V111.3C115.2 111.96 115.64 112.4 116.3 112.4C116.96 112.4 117.4 111.96 117.4 111.3V109.1C117.4 108.44 116.96 108 116.3 108Z" fill="#23408F"/>
<path d="M122.9 119C123.56 119 124 118.56 124 117.9V115.7C124 115.04 123.56 114.6 122.9 114.6C122.24 114.6 121.8 115.04 121.8 115.7V117.9C121.8 118.56 122.24 119 122.9 119Z" fill="#23408F"/>
<path d="M122.9 112.4C123.56 112.4 124 111.96 124 111.3V109.1C124 108.44 123.56 108 122.9 108C122.24 108 121.8 108.44 121.8 109.1V111.3C121.8 111.96 122.24 112.4 122.9 112.4Z" fill="#23408F"/>
<path d="M122.9 125.6C123.56 125.6 124 125.16 124 124.5V122.3C124 121.64 123.56 121.2 122.9 121.2C122.24 121.2 121.8 121.64 121.8 122.3V124.5C121.8 125.16 122.24 125.6 122.9 125.6Z" fill="#23408F"/>
<path d="M122.9 132.2C123.56 132.2 124 131.76 124 131.1V128.9C124 128.24 123.56 127.8 122.9 127.8C122.24 127.8 121.8 128.24 121.8 128.9V131.1C121.8 131.76 122.24 132.2 122.9 132.2Z" fill="#23408F"/>
<path d="M122.9 138.8C123.56 138.8 124 138.36 124 137.7V135.5C124 134.84 123.56 134.4 122.9 134.4C122.24 134.4 121.8 134.84 121.8 135.5V137.7C121.8 138.36 122.24 138.8 122.9 138.8Z" fill="#23408F"/>
<path d="M129.5 125.6C130.16 125.6 130.6 125.16 130.6 124.5V122.3C130.6 121.64 130.16 121.2 129.5 121.2C128.84 121.2 128.4 121.64 128.4 122.3V124.5C128.4 125.16 128.84 125.6 129.5 125.6Z" fill="#23408F"/>
<path d="M129.5 119C130.16 119 130.6 118.56 130.6 117.9V115.7C130.6 115.04 130.16 114.6 129.5 114.6C128.84 114.6 128.4 115.04 128.4 115.7V117.9C128.4 118.56 128.84 119 129.5 119Z" fill="#23408F"/>
<path d="M129.5 138.8C130.16 138.8 130.6 138.36 130.6 137.7V135.5C130.6 134.84 130.16 134.4 129.5 134.4C128.84 134.4 128.4 134.84 128.4 135.5V137.7C128.4 138.36 128.84 138.8 129.5 138.8Z" fill="#23408F"/>
<path d="M129.5 132.2C130.16 132.2 130.6 131.76 130.6 131.1V128.9C130.6 128.24 130.16 127.8 129.5 127.8C128.84 127.8 128.4 128.24 128.4 128.9V131.1C128.4 131.76 128.84 132.2 129.5 132.2Z" fill="#23408F"/>
<path d="M129.5 112.4C130.16 112.4 130.6 111.96 130.6 111.3V109.1C130.6 108.44 130.16 108 129.5 108C128.84 108 128.4 108.44 128.4 109.1V111.3C128.4 111.96 128.84 112.4 129.5 112.4Z" fill="#23408F"/>
<path d="M92.1 127.8C92.76 127.8 93.2 127.36 93.2 126.7V124.5C93.2 123.84 92.76 123.4 92.1 123.4C91.44 123.4 91.0001 123.84 91.0001 124.5V126.7C90.9999 127.36 91.44 127.8 92.1 127.8Z" fill="#23408F"/>
<path d="M92.1 134.4C92.76 134.4 93.2 133.96 93.2 133.3V131.1C93.2 130.44 92.76 130 92.1 130C91.44 130 91.0001 130.44 91.0001 131.1V133.3C90.9999 133.96 91.44 134.4 92.1 134.4Z" fill="#23408F"/>
<path d="M92.1 141C92.76 141 93.2 140.56 93.2 139.9V137.7C93.2 137.04 92.76 136.6 92.1 136.6C91.44 136.6 91.0001 137.04 91.0001 137.7V139.9C90.9999 140.56 91.44 141 92.1 141Z" fill="#23408F"/>
<path d="M92.1 94.7999C92.76 94.7999 93.2 94.3599 93.2 93.6999V91.4999C93.2 90.8399 92.76 90.3999 92.1 90.3999C91.44 90.3999 91.0001 90.8399 91.0001 91.4999V93.6999C90.9999 94.3598 91.44 94.7999 92.1 94.7999Z" fill="#23408F"/>
<path d="M92.1 101.4C92.76 101.4 93.2 100.96 93.2 100.3V98.1C93.2 97.44 92.76 97 92.1 97C91.44 97 91.0001 97.44 91.0001 98.1V100.3C90.9999 100.96 91.44 101.4 92.1 101.4Z" fill="#23408F"/>
<path d="M92.1 108C92.76 108 93.2 107.56 93.2 106.9V104.7C93.2 104.04 92.76 103.6 92.1 103.6C91.44 103.6 91.0001 104.04 91.0001 104.7V106.9C90.9999 107.56 91.44 108 92.1 108Z" fill="#23408F"/>
<path d="M92.1 114.6C92.76 114.6 93.2 114.16 93.2 113.5V111.3C93.2 110.64 92.76 110.2 92.1 110.2C91.44 110.2 91.0001 110.64 91.0001 111.3V113.5C90.9999 114.16 91.44 114.6 92.1 114.6Z" fill="#23408F"/>
<path d="M92.1 121.2C92.76 121.2 93.2 120.76 93.2 120.1V117.9C93.2 117.24 92.76 116.8 92.1 116.8C91.44 116.8 91.0001 117.24 91.0001 117.9V120.1C90.9999 120.76 91.44 121.2 92.1 121.2Z" fill="#23408F"/>
<path d="M98.7001 101.4C99.3601 101.4 99.8 100.96 99.8 100.3V98.1C99.8 97.44 99.3601 97 98.7001 97C98.0401 97 97.6001 97.44 97.6001 98.1V100.3C97.6 100.96 98.0401 101.4 98.7001 101.4Z" fill="#23408F"/>
<path d="M98.7001 94.7999C99.3601 94.7999 99.8 94.3599 99.8 93.6999V91.4999C99.8 90.8399 99.3601 90.3999 98.7001 90.3999C98.0401 90.3999 97.6001 90.8399 97.6001 91.4999V93.6999C97.6 94.3598 98.0401 94.7999 98.7001 94.7999Z" fill="#23408F"/>
<path d="M98.7001 114.6C99.3601 114.6 99.8 114.16 99.8 113.5V111.3C99.8 110.64 99.3601 110.2 98.7001 110.2C98.0401 110.2 97.6001 110.64 97.6001 111.3V113.5C97.6 114.16 98.0401 114.6 98.7001 114.6Z" fill="#23408F"/>
<path d="M98.7001 108C99.3601 108 99.8 107.56 99.8 106.9V104.7C99.8 104.04 99.3601 103.6 98.7001 103.6C98.0401 103.6 97.6001 104.04 97.6001 104.7V106.9C97.6 107.56 98.0401 108 98.7001 108Z" fill="#23408F"/>
<path d="M98.7001 121.2C99.3601 121.2 99.8 120.76 99.8 120.1V117.9C99.8 117.24 99.3601 116.8 98.7001 116.8C98.0401 116.8 97.6001 117.24 97.6001 117.9V120.1C97.6 120.76 98.0401 121.2 98.7001 121.2Z" fill="#23408F"/>
<path d="M98.7001 127.8C99.3601 127.8 99.8 127.36 99.8 126.7V124.5C99.8 123.84 99.3601 123.4 98.7001 123.4C98.0401 123.4 97.6001 123.84 97.6001 124.5V126.7C97.6 127.36 98.0401 127.8 98.7001 127.8Z" fill="#23408F"/>
<path d="M98.7001 134.4C99.3601 134.4 99.8 133.96 99.8 133.3V131.1C99.8 130.44 99.3601 130 98.7001 130C98.0401 130 97.6001 130.44 97.6001 131.1V133.3C97.6 133.96 98.0401 134.4 98.7001 134.4Z" fill="#23408F"/>
<path d="M105.3 108C105.96 108 106.4 107.56 106.4 106.9V104.7C106.4 104.04 105.96 103.6 105.3 103.6C104.64 103.6 104.2 104.04 104.2 104.7V106.9C104.2 107.56 104.64 108 105.3 108Z" fill="#23408F"/>
<path d="M105.3 101.4C105.96 101.4 106.4 100.96 106.4 100.3V98.1C106.4 97.44 105.96 97 105.3 97C104.64 97 104.2 97.44 104.2 98.1V100.3C104.2 100.96 104.64 101.4 105.3 101.4Z" fill="#23408F"/>
<path d="M105.3 94.7999C105.96 94.7999 106.4 94.3599 106.4 93.6999V91.4999C106.4 90.8399 105.96 90.3999 105.3 90.3999C104.64 90.3999 104.2 90.8399 104.2 91.4999V93.6999C104.2 94.3598 104.64 94.7999 105.3 94.7999Z" fill="#23408F"/>
<path d="M105.3 134.4C105.96 134.4 106.4 133.96 106.4 133.3V131.1C106.4 130.44 105.96 130 105.3 130C104.64 130 104.2 130.44 104.2 131.1V133.3C104.2 133.96 104.64 134.4 105.3 134.4Z" fill="#23408F"/>
<path d="M105.3 127.8C105.96 127.8 106.4 127.36 106.4 126.7V124.5C106.4 123.84 105.96 123.4 105.3 123.4C104.64 123.4 104.2 123.84 104.2 124.5V126.7C104.2 127.36 104.64 127.8 105.3 127.8Z" fill="#23408F"/>
<path d="M105.3 121.2C105.96 121.2 106.4 120.76 106.4 120.1V117.9C106.4 117.24 105.96 116.8 105.3 116.8C104.64 116.8 104.2 117.24 104.2 117.9V120.1C104.2 120.76 104.64 121.2 105.3 121.2Z" fill="#23408F"/>
<path d="M105.3 114.6C105.96 114.6 106.4 114.16 106.4 113.5V111.3C106.4 110.64 105.96 110.2 105.3 110.2C104.64 110.2 104.2 110.64 104.2 111.3V113.5C104.2 114.16 104.64 114.6 105.3 114.6Z" fill="#23408F"/>
<path d="M111.9 101.4C112.56 101.4 113 100.96 113 100.3V98.1C113 97.44 112.56 97 111.9 97C111.24 97 110.8 97.44 110.8 98.1V100.3C110.8 100.96 111.24 101.4 111.9 101.4Z" fill="#23408F"/>
<path d="M111.9 94.7999C112.56 94.7999 113 94.3599 113 93.6999V91.4999C113 90.8399 112.56 90.3999 111.9 90.3999C111.24 90.3999 110.8 90.8399 110.8 91.4999V93.6999C110.8 94.3598 111.24 94.7999 111.9 94.7999Z" fill="#23408F"/>
<defs>
<linearGradient id="paint0_linear_780_358" x1="112.5" y1="0" x2="112.5" y2="218" gradientUnits="userSpaceOnUse">
<stop stop-color="#FAFBFF"/>
<stop offset="1" stop-color="white"/>
</linearGradient>
<linearGradient id="paint1_linear_780_358" x1="112.5" y1="0" x2="112.5" y2="218" gradientUnits="userSpaceOnUse">
<stop stop-color="#0043AE"/>
<stop offset="1" stop-color="#F9FBFF"/>
</linearGradient>
</defs>
</svg>
